<?xml version="1.0" encoding="UTF-8"?>
<svg width="182px" height="54px" viewBox="0 0 182 54" version="1.1" xmlns="http://www.w3.org/2000/svg" xmlns:xlink="http://www.w3.org/1999/xlink">
    <!-- Generator: Sketch 45.1 (43504) - http://www.bohemiancoding.com/sketch -->
    <title>Cpes_White</title>
    <desc>Created with Sketch.</desc>
    <defs></defs>
    <g id="Page-1" stroke="none" stroke-width="1" fill="none" fill-rule="evenodd">
        <g id="Cpes_White" fill="#FFFFFF">
            <path d="M47.946,43.2704273 C45.456,46.5024273 42.392,49.0284273 38.754,50.8464273 C34.993,52.7364273 30.993,53.6804273 26.754,53.6804273 C23.135,53.6804273 19.664,52.9824273 16.344,51.5884273 C13.148,50.2274273 10.314,48.3124273 7.841,45.8394273 C5.368,43.3674273 3.453,40.5324273 2.093,37.3364273 C0.698,34.0164273 0,30.5464273 0,26.9264273 C0,23.2884273 0.698,19.8104273 2.093,16.4894273 C3.453,13.2934273 5.368,10.4594273 7.841,7.98642729 C10.314,5.51342729 13.148,3.60642729 16.344,2.26442729 C19.664,0.851427285 23.135,0.145427285 26.754,0.145427285 C30.393,0.145427285 33.871,0.851427285 37.191,2.26442729 C40.387,3.60642729 43.222,5.51342729 45.694,7.98642729 L36.238,17.4694273 C33.624,14.8564273 30.463,13.5494273 26.754,13.5494273 C23.063,13.5494273 19.911,14.8474273 17.298,17.4434273 C14.684,20.0564273 13.377,23.2174273 13.377,26.9264273 C13.377,30.6174273 14.684,33.7704273 17.298,36.3834273 C19.911,38.9964273 23.063,40.3034273 26.754,40.3034273 C30.764,40.3034273 34.101,38.8034273 36.767,35.8004273 L47.946,43.2704273 Z" id="Fill-109"></path>
            <path d="M171.013,52.2434136 C167.551,53.4444136 164.073,53.9034136 160.576,53.6204136 C152.894,53.6204136 147.331,50.8754136 143.888,45.3824136 C142.174,42.6104136 141.212,39.7044136 141,36.6674136 L153.556,34.8394136 C153.731,36.5354136 154.2,38.0184136 154.96,39.2904136 C155.649,40.4554136 156.478,41.3394136 157.45,41.9394136 C158.722,42.7504136 160.221,43.1574136 161.954,43.1574136 C164.512,43.1574136 166.155,42.4594136 166.881,41.0644136 C167.161,40.3584136 167.278,39.6084136 167.225,38.8134136 L167.225,38.7864136 C167.225,37.2504136 165.988,35.8824136 163.516,34.6804136 C162.526,34.2044136 161.14,33.6474136 159.358,33.0124136 L158.192,32.6144136 L156.974,32.1904136 C156.02,31.8374136 155.207,31.5454136 154.536,31.3164136 C150.404,29.7444136 147.339,28.0674136 145.345,26.2834136 C142.465,23.7234136 141.027,20.5354136 141.027,16.7214136 C141.027,9.30341364 144.566,4.31441364 151.649,1.75441364 C155.127,0.500413643 158.605,-0.0205863574 162.086,0.191413643 C166.306,0.191413643 169.908,1.04841364 172.894,2.76141364 C175.331,4.17441364 177.291,6.06241364 178.774,8.42941364 C180.504,11.2014136 181.476,14.1154136 181.688,17.1714136 L169.106,18.9724136 C168.928,17.2774136 168.459,15.7934136 167.702,14.5224136 C166.181,11.9624136 163.869,10.6814136 160.762,10.6814136 C158.181,10.6814136 156.513,11.3964136 155.755,12.8274136 C155.4,13.5154136 155.294,14.2404136 155.437,14.9994136 C155.437,16.9234136 156.69,18.5754136 159.199,19.9524136 C160.24,20.5354136 161.617,21.1614136 163.331,21.8334136 C163.895,22.0624136 164.69,22.3634136 165.715,22.7344136 L166.934,23.2104136 L168.179,23.6874136 C172.364,25.2944136 175.418,26.9024136 177.344,28.5084136 C180.205,30.9284136 181.635,33.9124136 181.635,37.4624136 C181.635,44.8964136 178.094,49.8234136 171.013,52.2434136" id="Fill-110"></path>
            <path d="M76.433,29.7584273 L73.371,31.1034273 L69.625,22.5714273 L65.43,26.8864273 L65.43,8.86042729 L78.703,21.0574273 L72.686,21.2264273 L76.433,29.7584273 Z M89.006,8.62142729 C87.328,6.11442729 85.033,4.12742729 82.119,2.66142729 C78.763,0.983427285 75.417,0.145427285 72.079,0.145427285 L52,0.145427285 L52,53.6804273 L65.378,53.6804273 L65.378,40.3034273 L72.079,40.3034273 C75.417,40.3034273 78.763,39.4644273 82.119,37.7864273 C88.794,34.4494273 92.132,28.5944273 92.132,20.2244273 C92.132,15.6324273 91.09,11.7644273 89.006,8.62142729 L89.006,8.62142729 Z" id="Fill-111"></path>
            <polygon id="Fill-112" points="136.132 13.5494273 136.132 0.145427285 96 0.145427285 96 53.6814273 136.132 53.6814273 136.132 40.3034273 109.378 40.3034273 109.378 33.6024273 122.755 33.6024273 129.457 33.6024273 129.457 20.2244273 109.378 20.2244273 109.378 13.5494273"></polygon>
        </g>
    </g>
</svg>